<svg xmlns="http://www.w3.org/2000/svg" viewBox="0 0 24 24" height="24" width="24"><title>interface-essential-key-login</title><g><path d="M22.8525 9.1425H24v4.574999999999999h-1.1475Z" fill="currentColor" stroke-width="1"></path><path d="M21.7125 13.7175h1.1400000000000001v1.1400000000000001h-1.1400000000000001Z" fill="currentColor" stroke-width="1"></path><path d="M21.7125 8.0025h1.1400000000000001v1.1400000000000001h-1.1400000000000001Z" fill="currentColor" stroke-width="1"></path><path d="M20.572499999999998 18.285h1.1400000000000001v1.1400000000000001h-1.1400000000000001Z" fill="currentColor" stroke-width="1"></path><path d="M19.424999999999997 19.424999999999997h1.1475v1.1475H19.424999999999997Z" fill="currentColor" stroke-width="1"></path><path d="M17.137500000000003 14.857499999999998h4.574999999999999v1.1400000000000001h-4.574999999999999Z" fill="currentColor" stroke-width="1"></path><path d="m20.572499999999998 9.1425 -2.2874999999999996 0 0 1.1400000000000001 -1.1475 0 0 2.2874999999999996 1.1475 0 0 1.1475 2.2874999999999996 0 0 -1.1475 1.1400000000000001 0 0 -2.2874999999999996 -1.1400000000000001 0 0 -1.1400000000000001z" fill="currentColor" stroke-width="1"></path><path d="M19.424999999999997 3.4275h1.1475V4.574999999999999H19.424999999999997Z" fill="currentColor" stroke-width="1"></path><path d="M17.137500000000003 6.855h4.574999999999999v1.1475h-4.574999999999999Z" fill="currentColor" stroke-width="1"></path><path d="M17.137500000000003 20.572499999999998h2.2874999999999996v1.1400000000000001h-2.2874999999999996Z" fill="currentColor" stroke-width="1"></path><path d="M17.137500000000003 2.2874999999999996h2.2874999999999996v1.1400000000000001h-2.2874999999999996Z" fill="currentColor" stroke-width="1"></path><path d="M15.997499999999999 13.7175h1.1400000000000001v1.1400000000000001h-1.1400000000000001Z" fill="currentColor" stroke-width="1"></path><path d="M15.997499999999999 8.0025h1.1400000000000001v1.1400000000000001h-1.1400000000000001Z" fill="currentColor" stroke-width="1"></path><path d="M14.857499999999998 21.7125h2.2800000000000002v1.1475h-2.2800000000000002Z" fill="currentColor" stroke-width="1"></path><path d="m11.43 11.43 0 3.4275 1.1400000000000001 0 0 -2.2874999999999996 2.2874999999999996 0 0 1.1475 1.1400000000000001 0 0 -2.2874999999999996 -4.5675 0z" fill="currentColor" stroke-width="1"></path><path d="M14.857499999999998 1.1400000000000001h2.2800000000000002v1.1475h-2.2800000000000002Z" fill="currentColor" stroke-width="1"></path><path d="M9.1425 22.86h5.715V24h-5.715Z" fill="currentColor" stroke-width="1"></path><path d="M10.2825 14.857499999999998h1.1475v1.1400000000000001h-1.1475Z" fill="currentColor" stroke-width="1"></path><path d="M9.1425 0h5.715v1.1400000000000001h-5.715Z" fill="currentColor" stroke-width="1"></path><path d="m10.2825 11.43 -3.4275 0 0 3.4275 1.1400000000000001 0 0 -2.2874999999999996 1.1475 0 0 2.2874999999999996 1.1400000000000001 0 0 -3.4275z" fill="currentColor" stroke-width="1"></path><path d="M6.855 21.7125h2.2874999999999996v1.1475H6.855Z" fill="currentColor" stroke-width="1"></path><path d="M6.855 1.1400000000000001h2.2874999999999996v1.1475H6.855Z" fill="currentColor" stroke-width="1"></path><path d="M5.715 9.1425h10.2825v1.1400000000000001H5.715Z" fill="currentColor" stroke-width="1"></path><path d="M4.5675 20.572499999999998h2.2874999999999996v1.1400000000000001H4.5675Z" fill="currentColor" stroke-width="1"></path><path d="M5.715 14.857499999999998h1.1400000000000001v1.1400000000000001H5.715Z" fill="currentColor" stroke-width="1"></path><path d="M4.5675 2.2874999999999996h2.2874999999999996v1.1400000000000001H4.5675Z" fill="currentColor" stroke-width="1"></path><path d="M4.5675 10.2825h1.1475v4.574999999999999H4.5675Z" fill="currentColor" stroke-width="1"></path><path d="M3.4275 19.424999999999997h1.1400000000000001v1.1475H3.4275Z" fill="currentColor" stroke-width="1"></path><path d="M3.4275 3.4275h1.1400000000000001V4.574999999999999H3.4275Z" fill="currentColor" stroke-width="1"></path><path d="M2.2874999999999996 17.145h1.1400000000000001v2.2800000000000002H2.2874999999999996Z" fill="currentColor" stroke-width="1"></path><path d="M2.2874999999999996 4.574999999999999h1.1400000000000001v2.2800000000000002H2.2874999999999996Z" fill="currentColor" stroke-width="1"></path><path d="M1.1400000000000001 14.857499999999998h1.1475v2.2874999999999996H1.1400000000000001Z" fill="currentColor" stroke-width="1"></path><path d="M1.1400000000000001 6.855h1.1475v2.2874999999999996H1.1400000000000001Z" fill="currentColor" stroke-width="1"></path><path d="M0 9.1425h1.1400000000000001v5.715H0Z" fill="currentColor" stroke-width="1"></path></g></svg>