<svg xmlns="http://www.w3.org/2000/svg" viewBox="0 0 24 24" height="24" width="24"><title>entertainment-events-hobbies-reward-winner-talent</title><g><path d="M17.145 13.71v-3.4275H6.855v3.4275H0V24h24V13.71ZM6.855 22.8525H1.1475V14.857499999999998h5.7075000000000005Zm9.1425 0H8.0025V11.43h7.995Zm6.862500000000001 0h-5.715V14.857499999999998h5.715Z" fill="currentColor" stroke-width="1"></path><path d="m21.7125 15.997499999999999 -3.4275 0 0 1.1475 2.2874999999999996 0 0 1.1400000000000001 -2.2874999999999996 0 0 1.1400000000000001 2.2874999999999996 0 0 1.1475 -2.2874999999999996 0 0 1.1400000000000001 3.4275 0 0 -5.715z" fill="currentColor" stroke-width="1"></path><path d="M19.4325 4.5675h2.2800000000000002v1.1475h-2.2800000000000002Z" fill="currentColor" stroke-width="1"></path><path d="M18.285 0h1.1475v1.1400000000000001h-1.1475Z" fill="currentColor" stroke-width="1"></path><path d="M17.145 1.1400000000000001h1.1400000000000001v1.1475h-1.1400000000000001Z" fill="currentColor" stroke-width="1"></path><path d="m13.7175 17.145 -1.1475 0 0 -4.574999999999999 -2.2800000000000002 0 0 1.1400000000000001 1.1400000000000001 0 0 3.435 -1.1400000000000001 0 0 1.1400000000000001 3.4275 0 0 -1.1400000000000001z" fill="currentColor" stroke-width="1"></path><path d="M11.43 0h1.1400000000000001v2.2874999999999996h-1.1400000000000001Z" fill="currentColor" stroke-width="1"></path><path d="M6.855 3.4275v4.5675h1.1475v1.1475h7.995v-1.1475h1.1475V3.4275h-1.1475v1.1400000000000001h-1.1400000000000001v1.1475h-1.1400000000000001V4.5675h-1.1475V3.4275h-1.1400000000000001v1.1400000000000001h-1.1400000000000001v1.1475h-1.1475V4.5675h-1.1400000000000001V3.4275Zm6.862500000000001 3.4275h1.1400000000000001v1.1400000000000001h-1.1400000000000001Zm-2.2874999999999996 0h1.1400000000000001v1.1400000000000001h-1.1400000000000001Zm-2.2874999999999996 0h1.1475v1.1400000000000001h-1.1475Z" fill="currentColor" stroke-width="1"></path><path d="M5.715 1.1400000000000001h1.1400000000000001v1.1475H5.715Z" fill="currentColor" stroke-width="1"></path><path d="M4.574999999999999 0h1.1400000000000001v1.1400000000000001H4.574999999999999Z" fill="currentColor" stroke-width="1"></path><path d="m5.715 20.572499999999998 -2.2874999999999996 0 0 -1.1475 2.2874999999999996 0 0 -3.4275 -3.4275 0 0 1.1475 2.2874999999999996 0 0 1.1400000000000001 -2.2874999999999996 0 0 3.4275 3.4275 0 0 -1.1400000000000001z" fill="currentColor" stroke-width="1"></path><path d="M2.2874999999999996 4.5675H4.574999999999999v1.1475H2.2874999999999996Z" fill="currentColor" stroke-width="1"></path></g></svg>